<svg xmlns="http://www.w3.org/2000/svg" xmlns:xlink="http://www.w3.org/1999/xlink" viewBox="0 0 1260 1024"><defs><style>.cls-1{fill:#606060;}.cls-2{opacity:0.1;}.cls-10,.cls-11,.cls-12,.cls-13,.cls-14,.cls-15,.cls-16,.cls-17,.cls-18,.cls-19,.cls-20,.cls-21,.cls-22,.cls-23,.cls-24,.cls-25,.cls-26,.cls-27,.cls-28,.cls-29,.cls-3,.cls-30,.cls-31,.cls-32,.cls-4,.cls-5,.cls-6,.cls-7,.cls-8,.cls-9{fill:none;stroke-miterlimit:10;stroke-width:2px;}.cls-3{stroke:url(#radial-gradient);}.cls-4{stroke:url(#radial-gradient-2);}.cls-5{stroke:url(#radial-gradient-3);}.cls-6{stroke:url(#radial-gradient-4);}.cls-7{stroke:url(#radial-gradient-5);}.cls-8{stroke:url(#radial-gradient-6);}.cls-9{stroke:url(#radial-gradient-7);}.cls-10{stroke:url(#radial-gradient-8);}.cls-11{stroke:url(#radial-gradient-9);}.cls-12{stroke:url(#radial-gradient-10);}.cls-13{stroke:url(#radial-gradient-11);}.cls-14{stroke:url(#radial-gradient-12);}.cls-15{stroke:url(#radial-gradient-13);}.cls-16{stroke:url(#radial-gradient-14);}.cls-17{stroke:url(#radial-gradient-15);}.cls-18{stroke:url(#radial-gradient-16);}.cls-19{stroke:url(#radial-gradient-17);}.cls-20{stroke:url(#radial-gradient-18);}.cls-21{stroke:url(#radial-gradient-19);}.cls-22{stroke:url(#radial-gradient-20);}.cls-23{stroke:url(#radial-gradient-21);}.cls-24{stroke:url(#radial-gradient-22);}.cls-25{stroke:url(#radial-gradient-23);}.cls-26{stroke:url(#radial-gradient-24);}.cls-27{stroke:url(#radial-gradient-25);}.cls-28{stroke:url(#radial-gradient-26);}.cls-29{stroke:url(#radial-gradient-27);}.cls-30{stroke:url(#radial-gradient-28);}.cls-31{stroke:url(#radial-gradient-29);}.cls-32{stroke:url(#radial-gradient-30);}</style><radialGradient id="radial-gradient" cx="685.56" cy="342.49" r="541.52" gradientTransform="matrix(0.88, -0.11, 0.13, 0.98, -27.69, 84.52)" gradientUnits="userSpaceOnUse"><stop offset="0" stop-color="#fff"/><stop offset="0.22" stop-color="#fcfcfc"/><stop offset="0.36" stop-color="#f4f4f4"/><stop offset="0.47" stop-color="#e5e5e5"/><stop offset="0.57" stop-color="#d1d1d1"/><stop offset="0.66" stop-color="#b6b6b6"/><stop offset="0.75" stop-color="#959595"/><stop offset="0.83" stop-color="#6e6e6e"/><stop offset="0.91" stop-color="#414141"/><stop offset="0.98" stop-color="#101010"/><stop offset="1"/></radialGradient><radialGradient id="radial-gradient-2" cx="685.87" cy="350.06" r="544.61" xlink:href="#radial-gradient"/><radialGradient id="radial-gradient-3" cx="686.26" cy="359.52" r="548.53" xlink:href="#radial-gradient"/><radialGradient id="radial-gradient-4" cx="686.62" cy="368.5" r="552.3" xlink:href="#radial-gradient"/><radialGradient id="radial-gradient-5" cx="687.02" cy="377.95" r="556.31" xlink:href="#radial-gradient"/><radialGradient id="radial-gradient-6" cx="539.08" cy="571.66" r="503.25" gradientTransform="translate(101.57 -174.86) rotate(9.94)" xlink:href="#radial-gradient"/><radialGradient id="radial-gradient-7" cx="538.68" cy="579.26" r="505.85" gradientTransform="translate(101.57 -174.86) rotate(9.94)" xlink:href="#radial-gradient"/><radialGradient id="radial-gradient-8" cx="538.04" cy="588.76" r="509.08" gradientTransform="translate(101.57 -174.86) rotate(9.94)" xlink:href="#radial-gradient"/><radialGradient id="radial-gradient-9" cx="537.58" cy="597.78" r="512.29" gradientTransform="translate(101.57 -174.86) rotate(9.94)" xlink:href="#radial-gradient"/><radialGradient id="radial-gradient-10" cx="537.1" cy="607.27" r="515.74" gradientTransform="translate(101.57 -174.86) rotate(9.94)" xlink:href="#radial-gradient"/><radialGradient id="radial-gradient-11" cx="868.32" cy="96.09" r="561.67" gradientTransform="matrix(0.75, -0.26, 0.28, 0.81, -64.03, 348.26)" xlink:href="#radial-gradient"/><radialGradient id="radial-gradient-12" cx="869.06" cy="103.87" r="565.24" gradientTransform="matrix(0.75, -0.26, 0.28, 0.81, -64.03, 348.26)" xlink:href="#radial-gradient"/><radialGradient id="radial-gradient-13" cx="869.99" cy="113.58" r="569.74" gradientTransform="matrix(0.75, -0.26, 0.28, 0.81, -64.03, 348.26)" xlink:href="#radial-gradient"/><radialGradient id="radial-gradient-14" cx="870.87" cy="122.81" r="574.06" gradientTransform="matrix(0.75, -0.26, 0.28, 0.81, -64.03, 348.26)" xlink:href="#radial-gradient"/><radialGradient id="radial-gradient-15" cx="871.8" cy="132.51" r="578.66" gradientTransform="matrix(0.75, -0.26, 0.28, 0.81, -64.03, 348.26)" xlink:href="#radial-gradient"/><radialGradient id="radial-gradient-16" cx="446.13" cy="750.71" r="368.35" gradientTransform="matrix(1, 0, 0, 1, 0, 0)" xlink:href="#radial-gradient"/><radialGradient id="radial-gradient-17" cx="446.14" cy="752.57" r="367.65" gradientTransform="matrix(1, 0, 0, 1, 0, 0)" xlink:href="#radial-gradient"/><radialGradient id="radial-gradient-18" cx="446.13" cy="753.39" r="367.33" gradientTransform="matrix(1, 0, 0, 1, 0, 0)" xlink:href="#radial-gradient"/><radialGradient id="radial-gradient-19" cx="446.09" cy="753.4" r="367.32" gradientTransform="matrix(1, 0, 0, 1, 0, 0)" xlink:href="#radial-gradient"/><radialGradient id="radial-gradient-20" cx="446.06" cy="753.41" r="367.32" gradientTransform="matrix(1, 0, 0, 1, 0, 0)" xlink:href="#radial-gradient"/><radialGradient id="radial-gradient-21" cx="309.15" cy="840.03" r="319.73" gradientTransform="matrix(0.83, 0.27, -0.24, 0.73, 216.91, 46.26)" xlink:href="#radial-gradient"/><radialGradient id="radial-gradient-22" cx="309.15" cy="844.2" r="318.15" gradientTransform="matrix(0.83, 0.27, -0.24, 0.73, 216.91, 46.26)" xlink:href="#radial-gradient"/><radialGradient id="radial-gradient-23" cx="309.14" cy="848.69" r="316.47" gradientTransform="matrix(0.83, 0.27, -0.24, 0.73, 216.91, 46.26)" xlink:href="#radial-gradient"/><radialGradient id="radial-gradient-24" cx="309.12" cy="850.05" r="315.95" gradientTransform="matrix(0.83, 0.27, -0.24, 0.73, 216.91, 46.26)" xlink:href="#radial-gradient"/><radialGradient id="radial-gradient-25" cx="309.1" cy="851.2" r="315.51" gradientTransform="matrix(0.83, 0.27, -0.24, 0.73, 216.91, 46.26)" xlink:href="#radial-gradient"/><radialGradient id="radial-gradient-26" cx="194.98" cy="980.52" r="287.92" gradientTransform="matrix(0.66, 0.45, -0.38, 0.55, 377.66, 111.61)" xlink:href="#radial-gradient"/><radialGradient id="radial-gradient-27" cx="194.97" cy="986.08" r="285.53" gradientTransform="matrix(0.66, 0.45, -0.38, 0.55, 377.66, 111.61)" xlink:href="#radial-gradient"/><radialGradient id="radial-gradient-28" cx="194.95" cy="992.58" r="282.76" gradientTransform="matrix(0.66, 0.45, -0.38, 0.55, 377.66, 111.61)" xlink:href="#radial-gradient"/><radialGradient id="radial-gradient-29" cx="194.92" cy="994.92" r="281.76" gradientTransform="matrix(0.66, 0.45, -0.38, 0.55, 377.66, 111.61)" xlink:href="#radial-gradient"/><radialGradient id="radial-gradient-30" cx="194.9" cy="997.09" r="280.84" gradientTransform="matrix(0.66, 0.45, -0.38, 0.55, 377.66, 111.61)" xlink:href="#radial-gradient"/></defs><g id="Layer_1" data-name="Layer 1"><g id="Layer_3" data-name="Layer 3"><rect class="cls-1" y="-3" width="1260" height="1030"/></g></g><g id="Layer_2" data-name="Layer 2" class="cls-2"><path class="cls-3" d="M1.45,7.69c21.33,43,61.07,107,135.31,160.1,268.62,192,647.5-3.85,906.35,158.73,77.66,48.78,168.06,144.61,198.48,354"/><path class="cls-4" d="M1.45,7.69C22.53,56.71,62,126.38,139.22,182.57c263.2,191.41,645.5-6.22,906.35,158.73,79.15,50.05,168.39,146.92,198.48,354"/><path class="cls-5" d="M1.45,7.69C18.61,56,56.06,137.7,142.3,201,399.53,390,785.12,190.82,1048.66,359.77c72,46.17,166.34,140,198.48,354"/><path class="cls-6" d="M1.45,7.69c16.9,56,53.84,144.34,143.78,210.9,254.18,188.1,641.42-12.11,906.35,158.73,74.13,47.8,166.88,142.83,198.48,354"/><path class="cls-7" d="M1.45,7.69C17.89,72.47,54.57,167.44,148.32,237.07c252,187.16,640.24-13.86,906.35,158.72,76.35,49.52,167.42,145.86,198.48,354"/><path class="cls-8" d="M3.9,7.69C9.28,54.1,25.81,125.23,83.9,194.2,294.09,443.77,781.23,347.84,993,566.75c63.52,65.68,121.51,179.61,68.65,388"/><path class="cls-9" d="M3.9,7.69C6.53,59.85,20.44,136.28,80.51,209,285.13,456.62,776.66,359.87,989.57,581.53c64.61,67.26,120.92,181.91,68.65,388"/><path class="cls-10" d="M3.9,7.69c-1.28,50.51,5.57,138,72.37,219.77C275.5,471.24,771.17,373.84,985.34,600c58.53,61.81,121.56,174.74,68.65,388"/><path class="cls-11" d="M3.9,7.69C-.83,65.58,2.8,159.28,72.25,245,268.53,487.27,766.42,389.25,981.31,617.56c60.13,63.88,121,177.61,68.66,388"/><path class="cls-12" d="M3.9,7.69C-4.89,73.85-4.27,173.89,68,263.49,262.34,504.32,761.64,405.77,977.08,636c61.81,66.07,120.32,180.64,68.65,388"/><path class="cls-13" d="M0,4.28a431.87,431.87,0,0,0,153.86,116c277.54,124.18,565.33-94.74,827.78,5.94,78.74,30.21,179.07,98.34,252.17,270.83"/><path class="cls-14" d="M0,4.28c29.32,38.4,79.26,91.64,159.3,128.16C432,256.85,722.36,36,987.08,138.38c80.32,31.07,179.86,100.24,252.17,270.83"/><path class="cls-15" d="M0,4.28c25.73,38.34,76.62,102,166.1,143.32C433,270.73,725.91,48.15,993.87,153.54c73.24,28.8,176.54,94.66,252.18,270.83"/><path class="cls-16" d="M0,4.28C27.22,49.2,79.13,118.52,172.56,162c264,122.89,558.17-100.85,827.77,5.94,75.43,29.88,177.64,97,252.18,270.83"/><path class="cls-17" d="M0,4.28C28.76,56.64,81.93,131.63,179.36,177.16,441.27,299.56,736.12,75,1007.13,183.1c77.76,31,178.78,99.48,252.18,270.83"/><path class="cls-18" d="M1.49,485.79C153.65,470.7,247.06,490.53,303,510.07c181.86,63.49,169.52,194.1,373.34,367.38,79.28,67.4,160.31,114.94,214,143.62"/><path class="cls-19" d="M1.49,485.79C152.86,477.85,246.4,500.68,303,522.07,489.51,592.52,469.4,725,676.36,889.45c79.1,62.86,160.38,106,214,131.62"/><path class="cls-20" d="M1.49,485.79C154.88,487,247.72,515,303,539.07c190.57,82.84,162.45,216.57,373.34,367.38,78.93,56.45,160.48,93.21,214,114.62"/><path class="cls-21" d="M1.49,485.79c141.45,3.9,228.37,30.93,280.14,53.28C479.07,624.3,446.76,762.91,655,906.45c85.11,58.68,176,94.43,235.42,114.62"/><path class="cls-22" d="M1.49,485.79c126.43,6.3,207.66,31.3,258.76,53.28,203.5,87.51,168.46,229.86,373.34,367.38,91.8,61.62,192.89,96.18,256.81,114.62"/><path class="cls-23" d="M7.12,484.62c131.6,13.77,201,43.51,239.64,66.92,125.47,76.09,64.25,169.61,165,329.59,39.18,62.22,87.56,110.21,120.75,139.94"/><path class="cls-24" d="M7.12,484.62c128.16,18.87,196.53,50.82,235,75.7,126.57,81.93,58.21,175.54,165,329.58,40.8,58.87,91.12,103.66,125.43,131.17"/><path class="cls-25" d="M7.12,484.62c126.27,25.86,192,61.53,228.32,88.13,125.09,91.66,49.63,184.89,165,329.59,43.17,54.15,96.18,94.34,132.07,118.73"/><path class="cls-26" d="M7.12,484.62c115.34,25.91,176.6,59.86,210.65,84.64,129.84,94.54,49,190.65,165,329.59,47.41,56.8,108.51,97.76,149.74,122.22"/><path class="cls-27" d="M7.12,484.62c102,25.22,159.34,56.75,193,81.16,134,97.19,49.41,195.59,165,329.59,51.78,60,121.81,101.79,167.41,125.7"/><path class="cls-28" d="M1.71,485.35c110,33,159.5,69.44,184.45,95.5,81.1,84.69-7.7,153.77,20.15,305.34,10.83,58.94,35.08,107.36,52.91,137.88"/><path class="cls-29" d="M1.71,485.35c105,36.78,152.8,74.89,177,102.16,79.87,89.81-15.21,157.8,20.15,305.33,13.51,56.38,40.67,102.4,60.32,131.23"/><path class="cls-30" d="M1.71,485.35c100.73,42.38,144.81,83.21,166.55,111.58,74.91,97.8-26.25,164.32,20.15,305.34,17.36,52.78,48.6,95.35,70.81,121.8"/><path class="cls-31" d="M1.71,485.35c91.15,40.64,132,79.29,152.4,105.77,78,101-29,169.07,20.15,305.33,20.07,55.7,58.1,100.25,85,127.62"/><path class="cls-32" d="M1.71,485.35c79.73,37.89,118,73.86,138.26,99.95,80.58,103.9-30.47,173.32,20.14,305.33,22.68,59.15,68.22,105.82,99.11,133.44"/><path d="M184.43,30a4.87,4.87,0,0,0-5.21-2.42l-44.95,7.1a4.72,4.72,0,0,0-3.13,1.81,3.32,3.32,0,0,0-.45,3.14c4.66,12.4-2,28.95-7.1,38.85a13.58,13.58,0,0,0-4.43-.74c-6.42,0-11.62,4.33-11.62,9.67s5.2,9.67,11.62,9.67,11.62-4.33,11.62-9.67a7.94,7.94,0,0,0-.42-2.53c5.19-9.27,13.79-27.7,10.43-43.36L177,35.78a35.63,35.63,0,0,1,1.78,16.81,37.08,37.08,0,0,1-4.27,12.69,13.34,13.34,0,0,0-5-.94c-6.42,0-11.62,4.33-11.62,9.67s5.2,9.67,11.62,9.67,11.62-4.33,11.62-9.67a8,8,0,0,0-.28-2.09A44.69,44.69,0,0,0,188,53.47,42.48,42.48,0,0,0,184.43,30Z"/><path d="M367.53,106.17a4.35,4.35,0,0,0-4.65-2.16l-40.11,6.33A4.17,4.17,0,0,0,320,112a3,3,0,0,0-.41,2.8c4.16,11.06-1.77,25.83-6.33,34.66a12.13,12.13,0,0,0-4-.65c-5.72,0-10.36,3.86-10.36,8.62s4.64,8.63,10.36,8.63,10.37-3.86,10.37-8.63a7.14,7.14,0,0,0-.37-2.26c4.63-8.27,12.3-24.71,9.3-38.68l32.29-5.1a31.77,31.77,0,0,1,1.59,15,33,33,0,0,1-3.81,11.32,12,12,0,0,0-4.42-.83c-5.73,0-10.37,3.86-10.37,8.62s4.64,8.63,10.37,8.63,10.37-3.86,10.37-8.63a7.33,7.33,0,0,0-.25-1.87,39.68,39.68,0,0,0,6.35-16.45A38,38,0,0,0,367.53,106.17Z"/><path d="M574.46,149.61c-1.07-2.35-4-3.71-7-3.24l-60.16,9.49a6.33,6.33,0,0,0-4.18,2.42,4.43,4.43,0,0,0-.6,4.2c6.23,16.6-2.66,38.75-9.5,52a18.21,18.21,0,0,0-5.93-1c-8.59,0-15.56,5.79-15.56,12.93s7,12.94,15.56,12.94,15.55-5.79,15.55-12.94a11,11,0,0,0-.56-3.39c6.95-12.4,18.44-37.07,13.95-58l48.43-7.64a47.44,47.44,0,0,1,2.39,22.5,49.8,49.8,0,0,1-5.71,17,18.19,18.19,0,0,0-6.63-1.25c-8.59,0-15.56,5.79-15.56,12.94s7,12.94,15.56,12.94,15.55-5.8,15.55-12.94a10.87,10.87,0,0,0-.38-2.8,59.64,59.64,0,0,0,9.53-24.69A56.69,56.69,0,0,0,574.46,149.61Z"/><path d="M740.5,50.46A4.2,4.2,0,0,0,736,48.37l-38.78,6.12a4.12,4.12,0,0,0-2.69,1.56,2.85,2.85,0,0,0-.39,2.71c4,10.7-1.71,25-6.12,33.51a11.91,11.91,0,0,0-3.82-.63c-5.54,0-10,3.73-10,8.34s4.49,8.34,10,8.34,10-3.74,10-8.34a7,7,0,0,0-.36-2.19c4.48-8,11.89-23.89,9-37.4l31.22-4.92A30.66,30.66,0,0,1,735.61,70a32,32,0,0,1-3.68,10.94,11.67,11.67,0,0,0-4.27-.8c-5.54,0-10,3.73-10,8.33s4.49,8.34,10,8.34,10-3.73,10-8.34a7.17,7.17,0,0,0-.24-1.8,38.49,38.49,0,0,0,6.14-15.91A36.63,36.63,0,0,0,740.5,50.46Z"/><path d="M921.36,136.15a5.07,5.07,0,0,0-5.42-2.52L869.15,141a4.88,4.88,0,0,0-3.25,1.88,3.44,3.44,0,0,0-.47,3.27c4.85,12.91-2.07,30.13-7.39,40.44a14.15,14.15,0,0,0-4.61-.76c-6.69,0-12.1,4.5-12.1,10.06S846.74,206,853.43,206s12.09-4.5,12.09-10.06a8.59,8.59,0,0,0-.43-2.64c5.4-9.64,14.34-28.83,10.85-45.13l37.67-5.95a37.15,37.15,0,0,1,1.85,17.51A38.54,38.54,0,0,1,911,172.9a14,14,0,0,0-5.16-1c-6.68,0-12.09,4.5-12.09,10.06s5.41,10.06,12.09,10.06S918,187.55,918,182a8.75,8.75,0,0,0-.29-2.18,46.47,46.47,0,0,0,7.41-19.2A44.18,44.18,0,0,0,921.36,136.15Z"/><path d="M1102.05,111.77a3.52,3.52,0,0,0-3.75-1.74l-32.31,5.1a3.42,3.42,0,0,0-2.24,1.3,2.36,2.36,0,0,0-.32,2.26c3.34,8.91-1.43,20.81-5.11,27.92a10,10,0,0,0-3.18-.52c-4.62,0-8.36,3.11-8.36,6.95s3.74,6.94,8.36,6.94,8.35-3.11,8.35-6.94a5.9,5.9,0,0,0-.3-1.83c3.73-6.66,9.9-19.9,7.49-31.16l26-4.1A25.36,25.36,0,0,1,1098,128a26.66,26.66,0,0,1-3.06,9.12,9.68,9.68,0,0,0-3.56-.67c-4.62,0-8.36,3.11-8.36,7s3.74,6.94,8.36,6.94,8.35-3.11,8.35-6.94a6.32,6.32,0,0,0-.2-1.51,32,32,0,0,0,5.11-13.26A30.45,30.45,0,0,0,1102.05,111.77Z"/><path d="M129.23,181.47a2.89,2.89,0,0,0-3.1-1.44l-26.74,4.22a2.8,2.8,0,0,0-1.85,1.08,1.94,1.94,0,0,0-.27,1.87c2.77,7.37-1.18,17.22-4.22,23.1a8.44,8.44,0,0,0-2.64-.43c-3.82,0-6.91,2.57-6.91,5.75s3.09,5.75,6.91,5.75,6.91-2.58,6.91-5.75a4.78,4.78,0,0,0-.25-1.51c3.09-5.51,8.2-16.47,6.21-25.79l21.52-3.39a21.15,21.15,0,0,1,1.06,10,22.06,22.06,0,0,1-2.54,7.54,8.06,8.06,0,0,0-2.95-.55c-3.81,0-6.91,2.57-6.91,5.75s3.1,5.75,6.91,5.75,6.92-2.58,6.92-5.75a4.71,4.71,0,0,0-.17-1.25,26.32,26.32,0,0,0,4.23-11A25.21,25.21,0,0,0,129.23,181.47Z"/><path d="M350.37,264.05a4.86,4.86,0,0,0-5.21-2.42l-45,7.09a4.77,4.77,0,0,0-3.12,1.81,3.3,3.3,0,0,0-.45,3.14c4.65,12.4-2,28.95-7.1,38.85a13.69,13.69,0,0,0-4.44-.73c-6.41,0-11.62,4.33-11.62,9.67s5.21,9.66,11.62,9.66,11.63-4.32,11.63-9.66a8.3,8.3,0,0,0-.42-2.54c5.19-9.26,13.78-27.69,10.42-43.36l36.19-5.71a35.44,35.44,0,0,1,1.78,16.82,37,37,0,0,1-4.26,12.68,13.59,13.59,0,0,0-5-.93c-6.42,0-11.62,4.33-11.62,9.67s5.2,9.66,11.62,9.66,11.62-4.32,11.62-9.66a8.18,8.18,0,0,0-.28-2.1,44.51,44.51,0,0,0,7.12-18.44A42.39,42.39,0,0,0,350.37,264.05Z"/><path d="M536.46,334.15a3.62,3.62,0,0,0-3.87-1.8l-33.43,5.27a3.57,3.57,0,0,0-2.32,1.35,2.46,2.46,0,0,0-.33,2.34c3.46,9.21-1.48,21.52-5.28,28.88a10.15,10.15,0,0,0-3.3-.55c-4.77,0-8.64,3.22-8.64,7.19s3.87,7.19,8.64,7.19,8.64-3.22,8.64-7.19a5.93,5.93,0,0,0-.31-1.88c3.86-6.89,10.25-20.6,7.76-32.24l26.9-4.24a26.39,26.39,0,0,1,1.32,12.5,27.33,27.33,0,0,1-3.17,9.43,10,10,0,0,0-3.68-.7c-4.77,0-8.64,3.22-8.64,7.19s3.87,7.19,8.64,7.19,8.64-3.22,8.64-7.19a6.3,6.3,0,0,0-.21-1.56,33.07,33.07,0,0,0,5.29-13.71A31.5,31.5,0,0,0,536.46,334.15Z"/><path d="M724.67,216.81a4.86,4.86,0,0,0-5.21-2.42l-45,7.1a4.69,4.69,0,0,0-3.12,1.81,3.3,3.3,0,0,0-.45,3.14c4.66,12.4-2,28.95-7.1,38.85a13.63,13.63,0,0,0-4.43-.74c-6.42,0-11.62,4.33-11.62,9.67s5.2,9.67,11.62,9.67S671,279.56,671,274.22a8.23,8.23,0,0,0-.42-2.53c5.19-9.27,13.78-27.7,10.43-43.36l36.18-5.71A35.5,35.5,0,0,1,719,239.43a37.29,37.29,0,0,1-4.27,12.69,13.39,13.39,0,0,0-5-.94c-6.42,0-11.62,4.33-11.62,9.67s5.2,9.67,11.62,9.67,11.62-4.33,11.62-9.67a8,8,0,0,0-.28-2.09,44.41,44.41,0,0,0,7.12-18.45A42.39,42.39,0,0,0,724.67,216.81Z"/><path d="M894.64,332.3a2.91,2.91,0,0,0-3.1-1.44l-26.74,4.22a2.84,2.84,0,0,0-1.85,1.08,2,2,0,0,0-.27,1.87c2.77,7.37-1.18,17.22-4.22,23.11a8.17,8.17,0,0,0-2.64-.44c-3.82,0-6.91,2.57-6.91,5.75s3.09,5.75,6.91,5.75,6.91-2.57,6.91-5.75a4.78,4.78,0,0,0-.25-1.51c3.09-5.51,8.2-16.47,6.21-25.79l21.52-3.39a21.15,21.15,0,0,1,1.06,10,22.06,22.06,0,0,1-2.54,7.54,8.06,8.06,0,0,0-3-.55c-3.81,0-6.91,2.57-6.91,5.75s3.1,5.75,6.91,5.75,6.92-2.58,6.92-5.75a4.71,4.71,0,0,0-.17-1.25,26.32,26.32,0,0,0,4.23-11A25.21,25.21,0,0,0,894.64,332.3Z"/><path d="M1109.86,269.62c-1.08-2.34-4-3.71-7-3.24l-60.17,9.49a6.33,6.33,0,0,0-4.17,2.43,4.42,4.42,0,0,0-.61,4.2c6.24,16.6-2.66,38.75-9.5,52a18.21,18.21,0,0,0-5.93-1c-8.59,0-15.55,5.8-15.55,12.94s7,12.94,15.55,12.94,15.55-5.79,15.55-12.94a10.71,10.71,0,0,0-.56-3.39c7-12.4,18.45-37.07,14-58l48.43-7.64a47.58,47.58,0,0,1,2.38,22.5,49.37,49.37,0,0,1-5.71,17,17.94,17.94,0,0,0-6.63-1.25c-8.59,0-15.55,5.79-15.55,12.94s7,12.93,15.55,12.93,15.55-5.79,15.55-12.93a10.81,10.81,0,0,0-.37-2.8,59.62,59.62,0,0,0,9.52-24.69A56.8,56.8,0,0,0,1109.86,269.62Z"/><path d="M90.91,291.09a4.87,4.87,0,0,0-5.21-2.43l-44.95,7.1a4.69,4.69,0,0,0-3.12,1.81,3.3,3.3,0,0,0-.45,3.14c4.66,12.4-2,29-7.1,38.85a13.63,13.63,0,0,0-4.43-.73c-6.42,0-11.62,4.32-11.62,9.66s5.2,9.67,11.62,9.67,11.62-4.33,11.62-9.67a8.23,8.23,0,0,0-.42-2.53c5.19-9.27,13.78-27.7,10.43-43.36l36.18-5.71a35.51,35.51,0,0,1,1.79,16.81A37.29,37.29,0,0,1,81,326.39a13.39,13.39,0,0,0-5-.94c-6.41,0-11.62,4.33-11.62,9.67s5.21,9.67,11.62,9.67,11.62-4.33,11.62-9.67a8,8,0,0,0-.28-2.09,44.41,44.41,0,0,0,7.12-18.45A42.34,42.34,0,0,0,90.91,291.09Z"/><path d="M228.17,380.3a3.61,3.61,0,0,0-3.88-1.8l-33.42,5.27a3.49,3.49,0,0,0-2.32,1.35,2.42,2.42,0,0,0-.33,2.33c3.46,9.22-1.48,21.53-5.28,28.89a10.15,10.15,0,0,0-3.3-.55c-4.77,0-8.64,3.22-8.64,7.19s3.87,7.19,8.64,7.19,8.64-3.22,8.64-7.19a6,6,0,0,0-.31-1.89c3.86-6.88,10.25-20.59,7.75-32.23l26.91-4.25a26.41,26.41,0,0,1,1.32,12.5,27.33,27.33,0,0,1-3.17,9.43,10,10,0,0,0-3.68-.69c-4.77,0-8.64,3.22-8.64,7.19s3.87,7.18,8.64,7.18,8.64-3.21,8.64-7.18a6.18,6.18,0,0,0-.21-1.56,33.07,33.07,0,0,0,5.29-13.71A31.59,31.59,0,0,0,228.17,380.3Z"/><path d="M429.16,428.11c-1.08-2.35-4-3.71-7-3.24L362,434.36a6.32,6.32,0,0,0-4.17,2.42,4.42,4.42,0,0,0-.61,4.21c6.24,16.59-2.66,38.74-9.5,52a18.21,18.21,0,0,0-5.93-1c-8.59,0-15.55,5.79-15.55,12.94s7,12.93,15.55,12.93,15.55-5.79,15.55-12.93a10.77,10.77,0,0,0-.56-3.4c6.95-12.4,18.45-37.07,14-58l48.43-7.65a47.6,47.6,0,0,1,2.38,22.51,49.39,49.39,0,0,1-5.71,17,18.19,18.19,0,0,0-6.63-1.25c-8.59,0-15.55,5.8-15.55,12.94s7,12.94,15.55,12.94,15.55-5.79,15.55-12.94a10.87,10.87,0,0,0-.38-2.8,59.6,59.6,0,0,0,9.53-24.68A56.79,56.79,0,0,0,429.16,428.11Z"/><path d="M719.62,376.92a4.86,4.86,0,0,0-5.21-2.42l-44.95,7.09a4.73,4.73,0,0,0-3.12,1.81,3.3,3.3,0,0,0-.45,3.14c4.66,12.4-2,28.95-7.1,38.85a13.63,13.63,0,0,0-4.43-.73c-6.42,0-11.62,4.33-11.62,9.67s5.2,9.66,11.62,9.66S666,439.66,666,434.33a8.3,8.3,0,0,0-.42-2.54c5.19-9.26,13.78-27.7,10.43-43.36l36.18-5.71A35.54,35.54,0,0,1,714,399.54a37.24,37.24,0,0,1-4.27,12.68,13.59,13.59,0,0,0-5-.93c-6.41,0-11.62,4.32-11.62,9.66s5.21,9.67,11.62,9.67,11.62-4.33,11.62-9.67a8.1,8.1,0,0,0-.28-2.09,44.43,44.43,0,0,0,7.12-18.44A42.38,42.38,0,0,0,719.62,376.92Z"/><path d="M790.74,522.18a2.9,2.9,0,0,0-3.1-1.44L760.9,525a2.76,2.76,0,0,0-1.85,1.08,1.94,1.94,0,0,0-.27,1.87c2.77,7.37-1.19,17.22-4.23,23.1a8.06,8.06,0,0,0-2.63-.43c-3.82,0-6.91,2.57-6.91,5.75s3.09,5.75,6.91,5.75,6.91-2.58,6.91-5.75a4.78,4.78,0,0,0-.25-1.51c3.09-5.51,8.2-16.47,6.2-25.79l21.53-3.4a21.21,21.21,0,0,1,1.06,10,22.06,22.06,0,0,1-2.54,7.54,8.11,8.11,0,0,0-3-.56c-3.82,0-6.91,2.58-6.91,5.75s3.09,5.75,6.91,5.75,6.91-2.57,6.91-5.75a5.14,5.14,0,0,0-.16-1.24,26.6,26.6,0,0,0,4.23-11A25.2,25.2,0,0,0,790.74,522.18Z"/><path d="M998.77,465.54a4.88,4.88,0,0,0-5.21-2.42l-45,7.09a4.76,4.76,0,0,0-3.12,1.81,3.33,3.33,0,0,0-.45,3.14c4.66,12.4-2,28.95-7.1,38.85a13.58,13.58,0,0,0-4.43-.73c-6.42,0-11.62,4.33-11.62,9.67s5.2,9.66,11.62,9.66,11.62-4.32,11.62-9.66a8,8,0,0,0-.42-2.54c5.19-9.26,13.79-27.7,10.43-43.36l36.19-5.71a35.68,35.68,0,0,1,1.78,16.82,37,37,0,0,1-4.27,12.68,13.54,13.54,0,0,0-5-.93c-6.42,0-11.62,4.33-11.62,9.66s5.2,9.67,11.62,9.67,11.62-4.33,11.62-9.67a8.16,8.16,0,0,0-.28-2.09,44.7,44.7,0,0,0,7.12-18.44A42.47,42.47,0,0,0,998.77,465.54Z"/><path d="M1062.53,656.54a3.62,3.62,0,0,0-3.87-1.8L1025.23,660a3.52,3.52,0,0,0-2.32,1.34,2.46,2.46,0,0,0-.33,2.34c3.46,9.22-1.48,21.52-5.28,28.88a10.15,10.15,0,0,0-3.3-.54c-4.77,0-8.64,3.21-8.64,7.18s3.87,7.19,8.64,7.19,8.64-3.22,8.64-7.19a5.93,5.93,0,0,0-.31-1.88c3.86-6.89,10.25-20.59,7.76-32.24l26.9-4.24a26.51,26.51,0,0,1,1.33,12.5,27.56,27.56,0,0,1-3.18,9.43,10,10,0,0,0-3.68-.69c-4.77,0-8.64,3.21-8.64,7.18s3.87,7.19,8.64,7.19,8.64-3.22,8.64-7.19a6.16,6.16,0,0,0-.21-1.55,33.11,33.11,0,0,0,5.29-13.72A31.51,31.51,0,0,0,1062.53,656.54Z"/><path d="M641.28,750.2a4.86,4.86,0,0,0-5.21-2.42l-45,7.09a4.69,4.69,0,0,0-3.12,1.81,3.3,3.3,0,0,0-.45,3.14c4.66,12.4-2,28.95-7.1,38.85a13.63,13.63,0,0,0-4.43-.73c-6.42,0-11.62,4.33-11.62,9.66s5.2,9.67,11.62,9.67,11.62-4.33,11.62-9.67a8,8,0,0,0-.42-2.53c5.19-9.27,13.78-27.7,10.43-43.36L633.84,756a35.65,35.65,0,0,1,1.78,16.81,37.29,37.29,0,0,1-4.27,12.69,13.59,13.59,0,0,0-5-.93c-6.41,0-11.62,4.32-11.62,9.66s5.21,9.67,11.62,9.67S638,799.57,638,794.23a8,8,0,0,0-.28-2.09,44.43,44.43,0,0,0,7.12-18.44A42.38,42.38,0,0,0,641.28,750.2Z"/><path d="M634.6,891.13a3.63,3.63,0,0,0-3.88-1.8L597.3,894.6A3.49,3.49,0,0,0,595,896a2.42,2.42,0,0,0-.33,2.33c3.46,9.22-1.48,21.53-5.28,28.89a10.15,10.15,0,0,0-3.3-.55c-4.77,0-8.64,3.22-8.64,7.19s3.87,7.19,8.64,7.19,8.64-3.22,8.64-7.19a5.93,5.93,0,0,0-.31-1.88c3.86-6.89,10.25-20.6,7.75-32.24l26.91-4.25a26.43,26.43,0,0,1,1.32,12.5,27.31,27.31,0,0,1-3.17,9.44,10,10,0,0,0-3.68-.7c-4.78,0-8.64,3.22-8.64,7.19s3.86,7.19,8.64,7.19,8.64-3.22,8.64-7.19a6.24,6.24,0,0,0-.21-1.56,33.21,33.21,0,0,0,5.29-13.71A31.59,31.59,0,0,0,634.6,891.13Z"/><path d="M451.25,707.35a3.6,3.6,0,0,0-3.87-1.8L414,710.82a3.52,3.52,0,0,0-2.32,1.34,2.47,2.47,0,0,0-.33,2.34c3.46,9.22-1.48,21.52-5.28,28.88a10.42,10.42,0,0,0-3.3-.54c-4.77,0-8.64,3.22-8.64,7.19s3.87,7.19,8.64,7.19,8.64-3.22,8.64-7.19a5.94,5.94,0,0,0-.31-1.89c3.86-6.89,10.25-20.59,7.76-32.23l26.9-4.25a26.53,26.53,0,0,1,1.33,12.5,27.56,27.56,0,0,1-3.18,9.43,10,10,0,0,0-3.68-.69c-4.77,0-8.64,3.22-8.64,7.19s3.87,7.18,8.64,7.18,8.64-3.21,8.64-7.18a6.18,6.18,0,0,0-.21-1.56,33.07,33.07,0,0,0,5.29-13.71A31.5,31.5,0,0,0,451.25,707.35Z"/><path d="M867.66,887.22c-1.08-2.34-4-3.71-7-3.24l-60.16,9.49a6.36,6.36,0,0,0-4.18,2.42,4.44,4.44,0,0,0-.6,4.21c6.23,16.59-2.67,38.74-9.51,52a18.16,18.16,0,0,0-5.93-1c-8.59,0-15.55,5.79-15.55,12.94s7,12.93,15.55,12.93,15.55-5.79,15.55-12.93a11.05,11.05,0,0,0-.55-3.4c6.94-12.4,18.44-37.06,14-58L857.69,895a47.56,47.56,0,0,1,2.38,22.5,49.39,49.39,0,0,1-5.71,17,18.11,18.11,0,0,0-6.63-1.25c-8.59,0-15.55,5.8-15.55,12.94s7,12.94,15.55,12.94,15.55-5.79,15.55-12.94a10.86,10.86,0,0,0-.37-2.8,59.58,59.58,0,0,0,9.52-24.68A56.79,56.79,0,0,0,867.66,887.22Z"/><path d="M511.33,575a4.85,4.85,0,0,0-5.2-2.42l-45,7.09a4.69,4.69,0,0,0-3.12,1.81,3.33,3.33,0,0,0-.45,3.14c4.66,12.4-2,28.95-7.1,38.85a13.63,13.63,0,0,0-4.43-.73c-6.42,0-11.62,4.33-11.62,9.66s5.2,9.67,11.62,9.67,11.62-4.33,11.62-9.67a8,8,0,0,0-.42-2.53c5.19-9.27,13.78-27.7,10.43-43.36l36.19-5.71a35.65,35.65,0,0,1,1.78,16.81,37.08,37.08,0,0,1-4.27,12.69,13.59,13.59,0,0,0-5-.93c-6.41,0-11.62,4.32-11.62,9.66s5.21,9.67,11.62,9.67,11.63-4.33,11.63-9.67a8.11,8.11,0,0,0-.29-2.09,44.43,44.43,0,0,0,7.12-18.44A42.38,42.38,0,0,0,511.33,575Z"/><path d="M311.3,557.38a3.61,3.61,0,0,0-3.87-1.8L274,560.85a3.57,3.57,0,0,0-2.32,1.35,2.47,2.47,0,0,0-.34,2.34c3.47,9.21-1.48,21.52-5.28,28.88a10,10,0,0,0-3.29-.55c-4.77,0-8.64,3.22-8.64,7.19s3.87,7.19,8.64,7.19,8.64-3.22,8.64-7.19a5.93,5.93,0,0,0-.31-1.88c3.86-6.89,10.25-20.6,7.75-32.24l26.91-4.24a26.39,26.39,0,0,1,1.32,12.5,27.54,27.54,0,0,1-3.17,9.43,10.1,10.1,0,0,0-3.69-.7c-4.77,0-8.64,3.22-8.64,7.19s3.87,7.19,8.64,7.19,8.64-3.22,8.64-7.19a6.3,6.3,0,0,0-.2-1.56A33.21,33.21,0,0,0,314,574.85,31.51,31.51,0,0,0,311.3,557.38Z"/><path d="M470.91,823.17a4.86,4.86,0,0,0-5.21-2.42l-44.95,7.09a4.69,4.69,0,0,0-3.12,1.81,3.33,3.33,0,0,0-.45,3.14c4.66,12.4-2,29-7.1,38.85a13.63,13.63,0,0,0-4.43-.73c-6.42,0-11.62,4.33-11.62,9.66s5.2,9.67,11.62,9.67,11.62-4.33,11.62-9.67a8,8,0,0,0-.42-2.53c5.19-9.27,13.78-27.7,10.43-43.36L463.47,829a35.65,35.65,0,0,1,1.78,16.81A37.29,37.29,0,0,1,461,858.47a13.59,13.59,0,0,0-5-.93c-6.41,0-11.62,4.32-11.62,9.66s5.21,9.67,11.62,9.67,11.62-4.33,11.62-9.67a8.1,8.1,0,0,0-.28-2.09,44.43,44.43,0,0,0,7.12-18.44A42.38,42.38,0,0,0,470.91,823.17Z"/><path d="M131.72,538.17c-1.08-2.34-4-3.71-7-3.24l-60.16,9.49a6.33,6.33,0,0,0-4.17,2.43,4.39,4.39,0,0,0-.61,4.2c6.24,16.6-2.66,38.75-9.5,52a18.21,18.21,0,0,0-5.93-1c-8.59,0-15.55,5.8-15.55,12.94s7,12.94,15.55,12.94S59.92,622.15,59.92,615a10.66,10.66,0,0,0-.56-3.39c7-12.4,18.45-37.07,14-58l48.43-7.64a47.58,47.58,0,0,1,2.38,22.5,49.37,49.37,0,0,1-5.71,17,17.94,17.94,0,0,0-6.63-1.25c-8.59,0-15.55,5.79-15.55,12.94s7,12.93,15.55,12.93,15.55-5.79,15.55-12.93a11,11,0,0,0-.38-2.81,59.41,59.41,0,0,0,9.53-24.68A56.8,56.8,0,0,0,131.72,538.17Z"/><path d="M172.55,689.8a3.6,3.6,0,0,0-3.88-1.8l-33.42,5.27a3.52,3.52,0,0,0-2.32,1.34,2.44,2.44,0,0,0-.33,2.34c3.46,9.22-1.48,21.52-5.28,28.88a10.42,10.42,0,0,0-3.3-.54c-4.77,0-8.64,3.22-8.64,7.19s3.87,7.19,8.64,7.19,8.64-3.22,8.64-7.19a5.94,5.94,0,0,0-.31-1.89c3.86-6.89,10.25-20.59,7.75-32.23L167,694.11a26.41,26.41,0,0,1,1.32,12.5,27.33,27.33,0,0,1-3.17,9.43,10,10,0,0,0-3.68-.69c-4.78,0-8.64,3.22-8.64,7.19s3.86,7.18,8.64,7.18,8.64-3.21,8.64-7.18a6.18,6.18,0,0,0-.21-1.56,33.12,33.12,0,0,0,5.29-13.71A31.59,31.59,0,0,0,172.55,689.8Z"/><path d="M301,750.2a4.85,4.85,0,0,0-5.2-2.42l-45,7.09a4.69,4.69,0,0,0-3.12,1.81,3.32,3.32,0,0,0-.45,3.14c4.66,12.4-2,28.95-7.1,38.85a13.63,13.63,0,0,0-4.43-.73c-6.42,0-11.62,4.33-11.62,9.66s5.2,9.67,11.62,9.67,11.62-4.33,11.62-9.67a8,8,0,0,0-.42-2.53c5.19-9.27,13.78-27.7,10.43-43.36L293.54,756a35.65,35.65,0,0,1,1.78,16.81,37.08,37.08,0,0,1-4.27,12.69,13.59,13.59,0,0,0-5-.93c-6.41,0-11.62,4.32-11.62,9.66s5.21,9.67,11.62,9.67,11.63-4.33,11.63-9.67a8,8,0,0,0-.29-2.09,44.43,44.43,0,0,0,7.12-18.44A42.38,42.38,0,0,0,301,750.2Z"/><path d="M168.06,880.57a3.6,3.6,0,0,0-3.87-1.8L130.77,884a3.49,3.49,0,0,0-2.32,1.34,2.47,2.47,0,0,0-.34,2.34c3.46,9.22-1.48,21.53-5.28,28.89a10.09,10.09,0,0,0-3.29-.55c-4.78,0-8.64,3.22-8.64,7.19s3.86,7.19,8.64,7.19,8.64-3.22,8.64-7.19a6.24,6.24,0,0,0-.31-1.89c3.85-6.89,10.24-20.59,7.75-32.23l26.9-4.25a26.53,26.53,0,0,1,1.33,12.5,27.56,27.56,0,0,1-3.18,9.43,10,10,0,0,0-3.68-.69c-4.77,0-8.64,3.22-8.64,7.19s3.87,7.18,8.64,7.18,8.64-3.21,8.64-7.18a5.76,5.76,0,0,0-.21-1.56,33.09,33.09,0,0,0,5.3-13.71A31.51,31.51,0,0,0,168.06,880.57Z"/><path d="M683.16,608.73a2.88,2.88,0,0,0-3.09-1.44l-26.74,4.22a2.79,2.79,0,0,0-1.86,1.08,2,2,0,0,0-.27,1.86c2.77,7.38-1.18,17.22-4.22,23.11a8.07,8.07,0,0,0-2.64-.43c-3.81,0-6.91,2.57-6.91,5.75s3.1,5.75,6.91,5.75,6.92-2.58,6.92-5.75a5,5,0,0,0-.25-1.51c3.08-5.51,8.19-16.48,6.2-25.79l21.52-3.4a21.06,21.06,0,0,1,1.06,10,21.83,21.83,0,0,1-2.54,7.55,8.05,8.05,0,0,0-2.94-.56c-3.82,0-6.91,2.58-6.91,5.75s3.09,5.75,6.91,5.75,6.91-2.57,6.91-5.75a4.7,4.7,0,0,0-.17-1.24,26.53,26.53,0,0,0,4.24-11A25.21,25.21,0,0,0,683.16,608.73Z"/><path d="M839.41,657.25a5,5,0,0,0-5.35-2.49l-46.2,7.29a4.87,4.87,0,0,0-3.21,1.86,3.39,3.39,0,0,0-.46,3.23c4.78,12.74-2.05,29.75-7.3,39.93a13.85,13.85,0,0,0-4.56-.76c-6.59,0-11.94,4.45-11.94,9.94s5.35,9.93,11.94,9.93,11.95-4.45,11.95-9.93a8.4,8.4,0,0,0-.43-2.61c5.33-9.52,14.16-28.46,10.71-44.56l37.19-5.87a36.51,36.51,0,0,1,1.83,17.28,38,38,0,0,1-4.38,13,13.89,13.89,0,0,0-5.09-1c-6.6,0-12,4.45-12,9.94s5.35,9.93,12,9.93,11.94-4.45,11.94-9.93a8.51,8.51,0,0,0-.29-2.15,45.84,45.84,0,0,0,7.32-19A43.6,43.6,0,0,0,839.41,657.25Z"/><path d="M894.64,791.75a2.88,2.88,0,0,0-3.1-1.44l-26.74,4.21A2.84,2.84,0,0,0,863,795.6a2,2,0,0,0-.27,1.87c2.77,7.37-1.18,17.22-4.22,23.11a8.17,8.17,0,0,0-2.64-.44c-3.82,0-6.91,2.58-6.91,5.75s3.09,5.75,6.91,5.75,6.91-2.57,6.91-5.75a4.78,4.78,0,0,0-.25-1.51c3.09-5.51,8.2-16.47,6.21-25.79l21.52-3.39a21.15,21.15,0,0,1,1.06,10,22.06,22.06,0,0,1-2.54,7.54,8.06,8.06,0,0,0-3-.55c-3.81,0-6.91,2.57-6.91,5.75s3.1,5.75,6.91,5.75,6.92-2.58,6.92-5.75a4.71,4.71,0,0,0-.17-1.25,26.32,26.32,0,0,0,4.23-11A25.17,25.17,0,0,0,894.64,791.75Z"/><path d="M1088.17,906.43a3.62,3.62,0,0,0-3.88-1.8l-33.42,5.27a3.49,3.49,0,0,0-2.32,1.35,2.42,2.42,0,0,0-.33,2.33c3.46,9.22-1.48,21.53-5.28,28.89a10.15,10.15,0,0,0-3.3-.55c-4.77,0-8.64,3.22-8.64,7.19s3.87,7.19,8.64,7.19,8.64-3.22,8.64-7.19a6,6,0,0,0-.31-1.89c3.86-6.88,10.25-20.59,7.75-32.23l26.91-4.25a26.41,26.41,0,0,1,1.32,12.5,27.33,27.33,0,0,1-3.17,9.43,10.08,10.08,0,0,0-3.68-.69c-4.78,0-8.65,3.22-8.65,7.19s3.87,7.18,8.65,7.18,8.64-3.21,8.64-7.18a6.18,6.18,0,0,0-.21-1.56,33.21,33.21,0,0,0,5.29-13.71A31.59,31.59,0,0,0,1088.17,906.43Z"/><path d="M1174.58,542.87a2.89,2.89,0,0,0-3.1-1.44l-26.73,4.22a2.79,2.79,0,0,0-1.86,1.08,2,2,0,0,0-.27,1.86c2.77,7.38-1.18,17.22-4.22,23.11a8.07,8.07,0,0,0-2.64-.43c-3.82,0-6.91,2.57-6.91,5.75s3.09,5.75,6.91,5.75,6.91-2.58,6.91-5.75a5,5,0,0,0-.24-1.51c3.08-5.51,8.19-16.48,6.2-25.79l21.52-3.4a21.18,21.18,0,0,1,1.06,10,22,22,0,0,1-2.54,7.55,8.05,8.05,0,0,0-2.94-.56c-3.82,0-6.92,2.58-6.92,5.75s3.1,5.75,6.92,5.75,6.91-2.57,6.91-5.75a4.7,4.7,0,0,0-.17-1.24,26.53,26.53,0,0,0,4.24-11A25.3,25.3,0,0,0,1174.58,542.87Z"/></g></svg>